<?xml version="1.0" standalone="no"?>
<!DOCTYPE svg PUBLIC "-//W3C//DTD SVG 20010904//EN"
 "http://www.w3.org/TR/2001/REC-SVG-20010904/DTD/svg10.dtd">
<svg version="1.0" xmlns="http://www.w3.org/2000/svg"
 width="324.000000pt" height="324.000000pt" viewBox="0 0 324.000000 324.000000"
 preserveAspectRatio="xMidYMid meet">
<metadata>
Created by potrace 1.11, written by Peter Selinger 2001-2013
</metadata>
<g transform="translate(0.000000,324.000000) scale(0.100000,-0.100000)"
fill="#000000" stroke="none">
<path d="M490 3224 c-175 -37 -341 -166 -419 -326 -73 -148 -71 -99 -71 -1284
0 -1023 1 -1064 20 -1138 55 -216 208 -377 430 -452 52 -18 106 -19 1170 -19
1064 0 1118 1 1170 19 211 72 354 215 426 426 18 52 19 106 19 1170 0 1064 -1
1118 -19 1170 -75 222 -236 375 -452 430 -75 19 -114 20 -1143 19 -872 0
-1078 -3 -1131 -15z m995 -635 l60 -24 3 -124 c2 -115 1 -123 -15 -116 -48 20
-138 45 -162 45 -45 0 -128 -25 -166 -51 -89 -59 -153 -210 -181 -422 -23
-179 -15 -585 15 -712 53 -225 155 -343 312 -360 50 -6 78 -1 177 30 l22 7 0
-125 0 -126 -57 -22 c-78 -30 -214 -37 -307 -15 -199 47 -338 199 -410 448
-93 322 -84 864 20 1177 42 127 79 194 149 270 99 106 218 152 380 148 78 -3
113 -9 160 -28z m820 16 c32 -9 78 -24 102 -35 l43 -19 0 -134 0 -135 -77 39
c-43 22 -98 42 -123 45 -168 22 -296 -139 -260 -326 20 -102 52 -147 272 -378
200 -209 257 -311 278 -491 34 -297 -116 -547 -361 -601 -114 -25 -270 -1
-361 56 l-38 24 0 135 c0 74 3 135 6 135 3 0 19 -9 34 -20 70 -50 142 -74 220
-74 88 0 122 15 172 74 45 52 58 98 58 201 -1 149 -37 209 -270 452 -216 226
-255 288 -280 452 -44 289 88 537 319 601 64 17 196 17 266 -1z"/>
</g>
</svg>
